<?xml version="1.0" encoding="UTF-8" standalone="no"?>
<!DOCTYPE svg PUBLIC "-//W3C//DTD SVG 1.1//EN"
 "http://www.w3.org/Graphics/SVG/1.1/DTD/svg11.dtd">
<!-- Generated by graphviz version 2.38.0 (20140413.2041)
 -->
<!-- Title: Tree Pages: 1 -->
<svg width="283pt" height="224pt"
 viewBox="0.00 0.00 283.00 224.00" xmlns="http://www.w3.org/2000/svg" xmlns:xlink="http://www.w3.org/1999/xlink">
<g id="graph0" class="graph" transform="scale(1 1) rotate(0) translate(4 220)">
<title>Tree</title>
<polygon fill="white" stroke="none" points="-4,4 -4,-220 279,-220 279,4 -4,4"/>
<!-- 0 -->
<g id="node1" class="node"><title>0</title>
<polygon fill="#ffffff" stroke="black" points="160,-216 56,-216 56,-163 160,-163 160,-216"/>
<text text-anchor="middle" x="108" y="-200.8" font-family="Times New Roman,serif" font-size="14.00">X[1] &lt;= &#45;5.814</text>
<text text-anchor="middle" x="108" y="-185.8" font-family="Times New Roman,serif" font-size="14.00">samples = 100</text>
<text text-anchor="middle" x="108" y="-170.8" font-family="Times New Roman,serif" font-size="14.00">value = [50, 50]</text>
</g>
<!-- 1 -->
<g id="node2" class="node"><title>1</title>
<polygon fill="#e58139" stroke="black" points="98,-119.5 0,-119.5 0,-81.5 98,-81.5 98,-119.5"/>
<text text-anchor="middle" x="49" y="-104.3" font-family="Times New Roman,serif" font-size="14.00">samples = 25</text>
<text text-anchor="middle" x="49" y="-89.3" font-family="Times New Roman,serif" font-size="14.00">value = [25, 0]</text>
</g>
<!-- 0&#45;&gt;1 -->
<g id="edge1" class="edge"><title>0&#45;&gt;1</title>
<path fill="none" stroke="black" d="M90.6172,-162.868C83.1609,-151.873 74.4545,-139.035 66.9379,-127.951"/>
<polygon fill="black" stroke="black" points="69.7209,-125.819 61.2114,-119.507 63.9274,-129.747 69.7209,-125.819"/>
<text text-anchor="middle" x="56.5027" y="-140.359" font-family="Times New Roman,serif" font-size="14.00">True</text>
</g>
<!-- 2 -->
<g id="node3" class="node"><title>2</title>
<polygon fill="#9ccef2" stroke="black" points="220,-127 116,-127 116,-74 220,-74 220,-127"/>
<text text-anchor="middle" x="168" y="-111.8" font-family="Times New Roman,serif" font-size="14.00">X[1] &lt;= 5.348</text>
<text text-anchor="middle" x="168" y="-96.8" font-family="Times New Roman,serif" font-size="14.00">samples = 75</text>
<text text-anchor="middle" x="168" y="-81.8" font-family="Times New Roman,serif" font-size="14.00">value = [25, 50]</text>
</g>
<!-- 0&#45;&gt;2 -->
<g id="edge2" class="edge"><title>0&#45;&gt;2</title>
<path fill="none" stroke="black" d="M125.677,-162.868C131.545,-154.359 138.174,-144.747 144.415,-135.698"/>
<polygon fill="black" stroke="black" points="147.445,-137.469 150.242,-127.25 141.683,-133.495 147.445,-137.469"/>
<text text-anchor="middle" x="154.758" y="-148.138" font-family="Times New Roman,serif" font-size="14.00">False</text>
</g>
<!-- 3 -->
<g id="node4" class="node"><title>3</title>
<polygon fill="#399de5" stroke="black" points="159,-38 61,-38 61,-0 159,-0 159,-38"/>
<text text-anchor="middle" x="110" y="-22.8" font-family="Times New Roman,serif" font-size="14.00">samples = 50</text>
<text text-anchor="middle" x="110" y="-7.8" font-family="Times New Roman,serif" font-size="14.00">value = [0, 50]</text>
</g>
<!-- 2&#45;&gt;3 -->
<g id="edge3" class="edge"><title>2&#45;&gt;3</title>
<path fill="none" stroke="black" d="M149.329,-73.9081C142.905,-65.1022 135.702,-55.2299 129.234,-46.3636"/>
<polygon fill="black" stroke="black" points="132.028,-44.2546 123.306,-38.2389 126.373,-48.3803 132.028,-44.2546"/>
</g>
<!-- 4 -->
<g id="node5" class="node"><title>4</title>
<polygon fill="#e58139" stroke="black" points="275,-38 177,-38 177,-0 275,-0 275,-38"/>
<text text-anchor="middle" x="226" y="-22.8" font-family="Times New Roman,serif" font-size="14.00">samples = 25</text>
<text text-anchor="middle" x="226" y="-7.8" font-family="Times New Roman,serif" font-size="14.00">value = [25, 0]</text>
</g>
<!-- 2&#45;&gt;4 -->
<g id="edge4" class="edge"><title>2&#45;&gt;4</title>
<path fill="none" stroke="black" d="M186.671,-73.9081C193.095,-65.1022 200.298,-55.2299 206.766,-46.3636"/>
<polygon fill="black" stroke="black" points="209.627,-48.3803 212.694,-38.2389 203.972,-44.2546 209.627,-48.3803"/>
</g>
</g>
</svg>
