<?xml version="1.0" encoding="UTF-8" standalone="no"?>
<!DOCTYPE svg PUBLIC "-//W3C//DTD SVG 1.1//EN"
 "http://www.w3.org/Graphics/SVG/1.1/DTD/svg11.dtd">
<!-- Generated by graphviz version 2.38.0 (20140413.2041)
 -->
<!-- Title: Tree Pages: 1 -->
<svg width="997pt" height="477pt"
 viewBox="0.00 0.00 996.50 477.00" xmlns="http://www.w3.org/2000/svg" xmlns:xlink="http://www.w3.org/1999/xlink">
<g id="graph0" class="graph" transform="scale(1 1) rotate(0) translate(4 473)">
<title>Tree</title>
<polygon fill="white" stroke="none" points="-4,4 -4,-473 992.5,-473 992.5,4 -4,4"/>
<!-- 0 -->
<g id="node1" class="node"><title>0</title>
<polygon fill="#afd7f4" stroke="black" points="614,-469 467,-469 467,-401 614,-401 614,-469"/>
<text text-anchor="middle" x="540.5" y="-453.8" font-family="Times New Roman,serif" font-size="14.00">worst radius &lt;= 16.795</text>
<text text-anchor="middle" x="540.5" y="-438.8" font-family="Times New Roman,serif" font-size="14.00">samples = 426</text>
<text text-anchor="middle" x="540.5" y="-423.8" font-family="Times New Roman,serif" font-size="14.00">value = [159, 267]</text>
<text text-anchor="middle" x="540.5" y="-408.8" font-family="Times New Roman,serif" font-size="14.00">class = 양성</text>
</g>
<!-- 1 -->
<g id="node2" class="node"><title>1</title>
<polygon fill="#4ca6e8" stroke="black" points="541,-365 350,-365 350,-297 541,-297 541,-365"/>
<text text-anchor="middle" x="445.5" y="-349.8" font-family="Times New Roman,serif" font-size="14.00">worst concave points &lt;= 0.136</text>
<text text-anchor="middle" x="445.5" y="-334.8" font-family="Times New Roman,serif" font-size="14.00">samples = 284</text>
<text text-anchor="middle" x="445.5" y="-319.8" font-family="Times New Roman,serif" font-size="14.00">value = [25, 259]</text>
<text text-anchor="middle" x="445.5" y="-304.8" font-family="Times New Roman,serif" font-size="14.00">class = 양성</text>
</g>
<!-- 0&#45;&gt;1 -->
<g id="edge1" class="edge"><title>0&#45;&gt;1</title>
<path fill="none" stroke="black" d="M509.656,-400.884C501.277,-391.887 492.106,-382.041 483.387,-372.678"/>
<polygon fill="black" stroke="black" points="485.891,-370.232 476.514,-365.299 480.768,-375.003 485.891,-370.232"/>
<text text-anchor="middle" x="475.626" y="-386.584" font-family="Times New Roman,serif" font-size="14.00">True</text>
</g>
<!-- 14 -->
<g id="node15" class="node"><title>14</title>
<polygon fill="#e78945" stroke="black" points="705.5,-365 565.5,-365 565.5,-297 705.5,-297 705.5,-365"/>
<text text-anchor="middle" x="635.5" y="-349.8" font-family="Times New Roman,serif" font-size="14.00">texture error &lt;= 0.473</text>
<text text-anchor="middle" x="635.5" y="-334.8" font-family="Times New Roman,serif" font-size="14.00">samples = 142</text>
<text text-anchor="middle" x="635.5" y="-319.8" font-family="Times New Roman,serif" font-size="14.00">value = [134, 8]</text>
<text text-anchor="middle" x="635.5" y="-304.8" font-family="Times New Roman,serif" font-size="14.00">class = 악성</text>
</g>
<!-- 0&#45;&gt;14 -->
<g id="edge14" class="edge"><title>0&#45;&gt;14</title>
<path fill="none" stroke="black" d="M571.344,-400.884C579.723,-391.887 588.894,-382.041 597.613,-372.678"/>
<polygon fill="black" stroke="black" points="600.232,-375.003 604.486,-365.299 595.109,-370.232 600.232,-375.003"/>
<text text-anchor="middle" x="605.374" y="-386.584" font-family="Times New Roman,serif" font-size="14.00">False</text>
</g>
<!-- 2 -->
<g id="node3" class="node"><title>2</title>
<polygon fill="#3c9fe5" stroke="black" points="349.5,-261 213.5,-261 213.5,-193 349.5,-193 349.5,-261"/>
<text text-anchor="middle" x="281.5" y="-245.8" font-family="Times New Roman,serif" font-size="14.00">radius error &lt;= 1.048</text>
<text text-anchor="middle" x="281.5" y="-230.8" font-family="Times New Roman,serif" font-size="14.00">samples = 252</text>
<text text-anchor="middle" x="281.5" y="-215.8" font-family="Times New Roman,serif" font-size="14.00">value = [4, 248]</text>
<text text-anchor="middle" x="281.5" y="-200.8" font-family="Times New Roman,serif" font-size="14.00">class = 양성</text>
</g>
<!-- 1&#45;&gt;2 -->
<g id="edge2" class="edge"><title>1&#45;&gt;2</title>
<path fill="none" stroke="black" d="M392.254,-296.884C376.708,-287.214 359.582,-276.563 343.542,-266.587"/>
<polygon fill="black" stroke="black" points="345.099,-263.434 334.759,-261.125 341.402,-269.378 345.099,-263.434"/>
</g>
<!-- 7 -->
<g id="node8" class="node"><title>7</title>
<polygon fill="#f3c3a1" stroke="black" points="517.5,-261 373.5,-261 373.5,-193 517.5,-193 517.5,-261"/>
<text text-anchor="middle" x="445.5" y="-245.8" font-family="Times New Roman,serif" font-size="14.00">worst texture &lt;= 25.62</text>
<text text-anchor="middle" x="445.5" y="-230.8" font-family="Times New Roman,serif" font-size="14.00">samples = 32</text>
<text text-anchor="middle" x="445.5" y="-215.8" font-family="Times New Roman,serif" font-size="14.00">value = [21, 11]</text>
<text text-anchor="middle" x="445.5" y="-200.8" font-family="Times New Roman,serif" font-size="14.00">class = 악성</text>
</g>
<!-- 1&#45;&gt;7 -->
<g id="edge7" class="edge"><title>1&#45;&gt;7</title>
<path fill="none" stroke="black" d="M445.5,-296.884C445.5,-288.778 445.5,-279.982 445.5,-271.472"/>
<polygon fill="black" stroke="black" points="449,-271.299 445.5,-261.299 442,-271.299 449,-271.299"/>
</g>
<!-- 3 -->
<g id="node4" class="node"><title>3</title>
<polygon fill="#3b9ee5" stroke="black" points="218,-157 49,-157 49,-89 218,-89 218,-157"/>
<text text-anchor="middle" x="133.5" y="-141.8" font-family="Times New Roman,serif" font-size="14.00">smoothness error &lt;= 0.003</text>
<text text-anchor="middle" x="133.5" y="-126.8" font-family="Times New Roman,serif" font-size="14.00">samples = 251</text>
<text text-anchor="middle" x="133.5" y="-111.8" font-family="Times New Roman,serif" font-size="14.00">value = [3, 248]</text>
<text text-anchor="middle" x="133.5" y="-96.8" font-family="Times New Roman,serif" font-size="14.00">class = 양성</text>
</g>
<!-- 2&#45;&gt;3 -->
<g id="edge3" class="edge"><title>2&#45;&gt;3</title>
<path fill="none" stroke="black" d="M233.449,-192.884C219.549,-183.304 204.251,-172.761 189.892,-162.864"/>
<polygon fill="black" stroke="black" points="191.783,-159.918 181.563,-157.125 187.811,-165.681 191.783,-159.918"/>
</g>
<!-- 6 -->
<g id="node7" class="node"><title>6</title>
<polygon fill="#e58139" stroke="black" points="327,-149.5 236,-149.5 236,-96.5 327,-96.5 327,-149.5"/>
<text text-anchor="middle" x="281.5" y="-134.3" font-family="Times New Roman,serif" font-size="14.00">samples = 1</text>
<text text-anchor="middle" x="281.5" y="-119.3" font-family="Times New Roman,serif" font-size="14.00">value = [1, 0]</text>
<text text-anchor="middle" x="281.5" y="-104.3" font-family="Times New Roman,serif" font-size="14.00">class = 악성</text>
</g>
<!-- 2&#45;&gt;6 -->
<g id="edge6" class="edge"><title>2&#45;&gt;6</title>
<path fill="none" stroke="black" d="M281.5,-192.884C281.5,-182.326 281.5,-170.597 281.5,-159.854"/>
<polygon fill="black" stroke="black" points="285,-159.52 281.5,-149.52 278,-159.52 285,-159.52"/>
</g>
<!-- 4 -->
<g id="node5" class="node"><title>4</title>
<polygon fill="#7bbeee" stroke="black" points="91,-53 0,-53 0,-0 91,-0 91,-53"/>
<text text-anchor="middle" x="45.5" y="-37.8" font-family="Times New Roman,serif" font-size="14.00">samples = 4</text>
<text text-anchor="middle" x="45.5" y="-22.8" font-family="Times New Roman,serif" font-size="14.00">value = [1, 3]</text>
<text text-anchor="middle" x="45.5" y="-7.8" font-family="Times New Roman,serif" font-size="14.00">class = 양성</text>
</g>
<!-- 3&#45;&gt;4 -->
<g id="edge4" class="edge"><title>3&#45;&gt;4</title>
<path fill="none" stroke="black" d="M102.722,-88.9485C94.2031,-79.8005 84.9554,-69.8697 76.4281,-60.7126"/>
<polygon fill="black" stroke="black" points="78.8428,-58.1698 69.4665,-53.2367 73.72,-62.9402 78.8428,-58.1698"/>
</g>
<!-- 5 -->
<g id="node6" class="node"><title>5</title>
<polygon fill="#3b9ee5" stroke="black" points="213.5,-53 109.5,-53 109.5,-0 213.5,-0 213.5,-53"/>
<text text-anchor="middle" x="161.5" y="-37.8" font-family="Times New Roman,serif" font-size="14.00">samples = 247</text>
<text text-anchor="middle" x="161.5" y="-22.8" font-family="Times New Roman,serif" font-size="14.00">value = [2, 245]</text>
<text text-anchor="middle" x="161.5" y="-7.8" font-family="Times New Roman,serif" font-size="14.00">class = 양성</text>
</g>
<!-- 3&#45;&gt;5 -->
<g id="edge5" class="edge"><title>3&#45;&gt;5</title>
<path fill="none" stroke="black" d="M143.293,-88.9485C145.787,-80.5323 148.477,-71.4536 151.004,-62.9243"/>
<polygon fill="black" stroke="black" points="154.389,-63.819 153.874,-53.2367 147.678,-61.8304 154.389,-63.819"/>
</g>
<!-- 8 -->
<g id="node9" class="node"><title>8</title>
<polygon fill="#7bbeee" stroke="black" points="518,-157 345,-157 345,-89 518,-89 518,-157"/>
<text text-anchor="middle" x="431.5" y="-141.8" font-family="Times New Roman,serif" font-size="14.00">worst smoothness &lt;= 0.179</text>
<text text-anchor="middle" x="431.5" y="-126.8" font-family="Times New Roman,serif" font-size="14.00">samples = 12</text>
<text text-anchor="middle" x="431.5" y="-111.8" font-family="Times New Roman,serif" font-size="14.00">value = [3, 9]</text>
<text text-anchor="middle" x="431.5" y="-96.8" font-family="Times New Roman,serif" font-size="14.00">class = 양성</text>
</g>
<!-- 7&#45;&gt;8 -->
<g id="edge8" class="edge"><title>7&#45;&gt;8</title>
<path fill="none" stroke="black" d="M440.955,-192.884C439.842,-184.778 438.635,-175.982 437.467,-167.472"/>
<polygon fill="black" stroke="black" points="440.898,-166.731 436.071,-157.299 433.963,-167.682 440.898,-166.731"/>
</g>
<!-- 11 -->
<g id="node12" class="node"><title>11</title>
<polygon fill="#e88f4f" stroke="black" points="697,-157 536,-157 536,-89 697,-89 697,-157"/>
<text text-anchor="middle" x="616.5" y="-141.8" font-family="Times New Roman,serif" font-size="14.00">worst symmetry &lt;= 0.268</text>
<text text-anchor="middle" x="616.5" y="-126.8" font-family="Times New Roman,serif" font-size="14.00">samples = 20</text>
<text text-anchor="middle" x="616.5" y="-111.8" font-family="Times New Roman,serif" font-size="14.00">value = [18, 2]</text>
<text text-anchor="middle" x="616.5" y="-96.8" font-family="Times New Roman,serif" font-size="14.00">class = 악성</text>
</g>
<!-- 7&#45;&gt;11 -->
<g id="edge11" class="edge"><title>7&#45;&gt;11</title>
<path fill="none" stroke="black" d="M501.019,-192.884C517.379,-183.125 535.416,-172.366 552.274,-162.31"/>
<polygon fill="black" stroke="black" points="554.172,-165.253 560.967,-157.125 550.586,-159.242 554.172,-165.253"/>
</g>
<!-- 9 -->
<g id="node10" class="node"><title>9</title>
<polygon fill="#4fa8e8" stroke="black" points="371,-53 280,-53 280,-0 371,-0 371,-53"/>
<text text-anchor="middle" x="325.5" y="-37.8" font-family="Times New Roman,serif" font-size="14.00">samples = 10</text>
<text text-anchor="middle" x="325.5" y="-22.8" font-family="Times New Roman,serif" font-size="14.00">value = [1, 9]</text>
<text text-anchor="middle" x="325.5" y="-7.8" font-family="Times New Roman,serif" font-size="14.00">class = 양성</text>
</g>
<!-- 8&#45;&gt;9 -->
<g id="edge9" class="edge"><title>8&#45;&gt;9</title>
<path fill="none" stroke="black" d="M394.426,-88.9485C383.96,-79.6175 372.58,-69.4722 362.139,-60.1641"/>
<polygon fill="black" stroke="black" points="364.162,-57.2788 354.369,-53.2367 359.504,-62.5038 364.162,-57.2788"/>
</g>
<!-- 10 -->
<g id="node11" class="node"><title>10</title>
<polygon fill="#e58139" stroke="black" points="480,-53 389,-53 389,-0 480,-0 480,-53"/>
<text text-anchor="middle" x="434.5" y="-37.8" font-family="Times New Roman,serif" font-size="14.00">samples = 2</text>
<text text-anchor="middle" x="434.5" y="-22.8" font-family="Times New Roman,serif" font-size="14.00">value = [2, 0]</text>
<text text-anchor="middle" x="434.5" y="-7.8" font-family="Times New Roman,serif" font-size="14.00">class = 악성</text>
</g>
<!-- 8&#45;&gt;10 -->
<g id="edge10" class="edge"><title>8&#45;&gt;10</title>
<path fill="none" stroke="black" d="M432.549,-88.9485C432.811,-80.7153 433.092,-71.848 433.358,-63.4814"/>
<polygon fill="black" stroke="black" points="436.864,-63.3428 433.683,-53.2367 429.867,-63.1206 436.864,-63.3428"/>
</g>
<!-- 12 -->
<g id="node13" class="node"><title>12</title>
<polygon fill="#9ccef2" stroke="black" points="601,-53 510,-53 510,-0 601,-0 601,-53"/>
<text text-anchor="middle" x="555.5" y="-37.8" font-family="Times New Roman,serif" font-size="14.00">samples = 3</text>
<text text-anchor="middle" x="555.5" y="-22.8" font-family="Times New Roman,serif" font-size="14.00">value = [1, 2]</text>
<text text-anchor="middle" x="555.5" y="-7.8" font-family="Times New Roman,serif" font-size="14.00">class = 양성</text>
</g>
<!-- 11&#45;&gt;12 -->
<g id="edge12" class="edge"><title>11&#45;&gt;12</title>
<path fill="none" stroke="black" d="M595.165,-88.9485C589.496,-80.1664 583.362,-70.6629 577.65,-61.815"/>
<polygon fill="black" stroke="black" points="580.477,-59.7402 572.113,-53.2367 574.596,-63.5365 580.477,-59.7402"/>
</g>
<!-- 13 -->
<g id="node14" class="node"><title>13</title>
<polygon fill="#e58139" stroke="black" points="717.5,-53 619.5,-53 619.5,-0 717.5,-0 717.5,-53"/>
<text text-anchor="middle" x="668.5" y="-37.8" font-family="Times New Roman,serif" font-size="14.00">samples = 17</text>
<text text-anchor="middle" x="668.5" y="-22.8" font-family="Times New Roman,serif" font-size="14.00">value = [17, 0]</text>
<text text-anchor="middle" x="668.5" y="-7.8" font-family="Times New Roman,serif" font-size="14.00">class = 악성</text>
</g>
<!-- 11&#45;&gt;13 -->
<g id="edge13" class="edge"><title>11&#45;&gt;13</title>
<path fill="none" stroke="black" d="M634.687,-88.9485C639.469,-80.2579 644.64,-70.8608 649.465,-62.0917"/>
<polygon fill="black" stroke="black" points="652.583,-63.6853 654.338,-53.2367 646.451,-60.3105 652.583,-63.6853"/>
</g>
<!-- 15 -->
<g id="node16" class="node"><title>15</title>
<polygon fill="#399de5" stroke="black" points="681,-253.5 590,-253.5 590,-200.5 681,-200.5 681,-253.5"/>
<text text-anchor="middle" x="635.5" y="-238.3" font-family="Times New Roman,serif" font-size="14.00">samples = 5</text>
<text text-anchor="middle" x="635.5" y="-223.3" font-family="Times New Roman,serif" font-size="14.00">value = [0, 5]</text>
<text text-anchor="middle" x="635.5" y="-208.3" font-family="Times New Roman,serif" font-size="14.00">class = 양성</text>
</g>
<!-- 14&#45;&gt;15 -->
<g id="edge15" class="edge"><title>14&#45;&gt;15</title>
<path fill="none" stroke="black" d="M635.5,-296.884C635.5,-286.326 635.5,-274.597 635.5,-263.854"/>
<polygon fill="black" stroke="black" points="639,-263.52 635.5,-253.52 632,-263.52 639,-263.52"/>
</g>
<!-- 16 -->
<g id="node17" class="node"><title>16</title>
<polygon fill="#e6843d" stroke="black" points="871,-261 710,-261 710,-193 871,-193 871,-261"/>
<text text-anchor="middle" x="790.5" y="-245.8" font-family="Times New Roman,serif" font-size="14.00">worst concavity &lt;= 0.191</text>
<text text-anchor="middle" x="790.5" y="-230.8" font-family="Times New Roman,serif" font-size="14.00">samples = 137</text>
<text text-anchor="middle" x="790.5" y="-215.8" font-family="Times New Roman,serif" font-size="14.00">value = [134, 3]</text>
<text text-anchor="middle" x="790.5" y="-200.8" font-family="Times New Roman,serif" font-size="14.00">class = 악성</text>
</g>
<!-- 14&#45;&gt;16 -->
<g id="edge16" class="edge"><title>14&#45;&gt;16</title>
<path fill="none" stroke="black" d="M685.824,-296.884C700.381,-287.304 716.403,-276.761 731.441,-266.864"/>
<polygon fill="black" stroke="black" points="733.734,-269.546 740.163,-261.125 729.886,-263.698 733.734,-269.546"/>
</g>
<!-- 17 -->
<g id="node18" class="node"><title>17</title>
<polygon fill="#bddef6" stroke="black" points="866,-157 715,-157 715,-89 866,-89 866,-157"/>
<text text-anchor="middle" x="790.5" y="-141.8" font-family="Times New Roman,serif" font-size="14.00">worst texture &lt;= 30.975</text>
<text text-anchor="middle" x="790.5" y="-126.8" font-family="Times New Roman,serif" font-size="14.00">samples = 5</text>
<text text-anchor="middle" x="790.5" y="-111.8" font-family="Times New Roman,serif" font-size="14.00">value = [2, 3]</text>
<text text-anchor="middle" x="790.5" y="-96.8" font-family="Times New Roman,serif" font-size="14.00">class = 양성</text>
</g>
<!-- 16&#45;&gt;17 -->
<g id="edge17" class="edge"><title>16&#45;&gt;17</title>
<path fill="none" stroke="black" d="M790.5,-192.884C790.5,-184.778 790.5,-175.982 790.5,-167.472"/>
<polygon fill="black" stroke="black" points="794,-167.299 790.5,-157.299 787,-167.299 794,-167.299"/>
</g>
<!-- 20 -->
<g id="node21" class="node"><title>20</title>
<polygon fill="#e58139" stroke="black" points="988.5,-149.5 884.5,-149.5 884.5,-96.5 988.5,-96.5 988.5,-149.5"/>
<text text-anchor="middle" x="936.5" y="-134.3" font-family="Times New Roman,serif" font-size="14.00">samples = 132</text>
<text text-anchor="middle" x="936.5" y="-119.3" font-family="Times New Roman,serif" font-size="14.00">value = [132, 0]</text>
<text text-anchor="middle" x="936.5" y="-104.3" font-family="Times New Roman,serif" font-size="14.00">class = 악성</text>
</g>
<!-- 16&#45;&gt;20 -->
<g id="edge20" class="edge"><title>16&#45;&gt;20</title>
<path fill="none" stroke="black" d="M837.902,-192.884C855.061,-180.896 874.38,-167.399 891.341,-155.549"/>
<polygon fill="black" stroke="black" points="893.778,-158.116 899.971,-149.52 889.769,-152.378 893.778,-158.116"/>
</g>
<!-- 18 -->
<g id="node19" class="node"><title>18</title>
<polygon fill="#399de5" stroke="black" points="833,-53 742,-53 742,-0 833,-0 833,-53"/>
<text text-anchor="middle" x="787.5" y="-37.8" font-family="Times New Roman,serif" font-size="14.00">samples = 3</text>
<text text-anchor="middle" x="787.5" y="-22.8" font-family="Times New Roman,serif" font-size="14.00">value = [0, 3]</text>
<text text-anchor="middle" x="787.5" y="-7.8" font-family="Times New Roman,serif" font-size="14.00">class = 양성</text>
</g>
<!-- 17&#45;&gt;18 -->
<g id="edge18" class="edge"><title>17&#45;&gt;18</title>
<path fill="none" stroke="black" d="M789.451,-88.9485C789.189,-80.7153 788.908,-71.848 788.642,-63.4814"/>
<polygon fill="black" stroke="black" points="792.133,-63.1206 788.317,-53.2367 785.136,-63.3428 792.133,-63.1206"/>
</g>
<!-- 19 -->
<g id="node20" class="node"><title>19</title>
<polygon fill="#e58139" stroke="black" points="942,-53 851,-53 851,-0 942,-0 942,-53"/>
<text text-anchor="middle" x="896.5" y="-37.8" font-family="Times New Roman,serif" font-size="14.00">samples = 2</text>
<text text-anchor="middle" x="896.5" y="-22.8" font-family="Times New Roman,serif" font-size="14.00">value = [2, 0]</text>
<text text-anchor="middle" x="896.5" y="-7.8" font-family="Times New Roman,serif" font-size="14.00">class = 악성</text>
</g>
<!-- 17&#45;&gt;19 -->
<g id="edge19" class="edge"><title>17&#45;&gt;19</title>
<path fill="none" stroke="black" d="M827.574,-88.9485C838.04,-79.6175 849.42,-69.4722 859.861,-60.1641"/>
<polygon fill="black" stroke="black" points="862.496,-62.5038 867.631,-53.2367 857.838,-57.2788 862.496,-62.5038"/>
</g>
</g>
</svg>
